HIERARCHY
ROOT Hips
{
	OFFSET 0.000000 100.481300 0.000000
	CHANNELS 6 Xposition Yposition Zposition Xrotation Yrotation Zrotation
	JOINT Spine
	{
		OFFSET -0.279200 12.230698 -2.892100
		CHANNELS 3 Xrotation Yrotation Zrotation
		JOINT Spine1
		{
			OFFSET -0.325700 14.269203 -3.374200
			CHANNELS 3 Xrotation Yrotation Zrotation
			JOINT Spine2
			{
				OFFSET -0.372300 16.307602 -0.352600
				CHANNELS 3 Xrotation Yrotation Zrotation
				JOINT Neck
				{
					OFFSET -0.418800 17.814194 8.416900
					CHANNELS 3 Xrotation Yrotation Zrotation
					JOINT Head
					{
						OFFSET 0.000000 7.031097 3.806800
						CHANNELS 3 Xrotation Yrotation Zrotation
						JOINT HeadTop_End
						{
							OFFSET 0.000000 24.646606 12.978600
							CHANNELS 3 Xrotation Yrotation Zrotation
							End Site
							{
								OFFSET 0.000000 27.854965 0.000000
							}
						}
					}
				}
				JOINT LeftShoulder
				{
					OFFSET 16.952999 14.495407 -7.737500
					CHANNELS 3 Xrotation Yrotation Zrotation
					JOINT LeftArm
					{
						OFFSET 9.308998 -2.777710 0.208600
						CHANNELS 3 Xrotation Yrotation Zrotation
						JOINT LeftForeArm
						{
							OFFSET 29.972298 0.000000 0.000000
							CHANNELS 3 Xrotation Yrotation Zrotation
							JOINT LeftHand
							{
								OFFSET 26.026505 0.000000 0.000000
								CHANNELS 3 Xrotation Yrotation Zrotation
								JOINT LeftHandThumb1
								{
									OFFSET 12.240501 -7.147949 9.207150
									CHANNELS 3 Xrotation Yrotation Zrotation
									JOINT LeftHandThumb2
									{
										OFFSET 4.138618 -2.389435 2.389433
										CHANNELS 3 Xrotation Yrotation Zrotation
										JOINT LeftHandThumb3
										{
											OFFSET 2.726913 -1.574387 1.574386
											CHANNELS 3 Xrotation Yrotation Zrotation
											JOINT LeftHandThumb4
											{
												OFFSET 3.941010 -2.275345 2.275342
												CHANNELS 3 Xrotation Yrotation Zrotation
												End Site
												{
													OFFSET -0.005798 5.087799 0.009903
												}
											}
										}
									}
								}
								JOINT LeftHandIndex1
								{
									OFFSET 24.424698 -1.985611 5.953459
									CHANNELS 3 Xrotation Yrotation Zrotation
									JOINT LeftHandIndex2
									{
										OFFSET 6.426697 0.000000 0.000000
										CHANNELS 3 Xrotation Yrotation Zrotation
										JOINT LeftHandIndex3
										{
											OFFSET 5.337898 0.000000 0.000000
											CHANNELS 3 Xrotation Yrotation Zrotation
											JOINT LeftHandIndex4
											{
												OFFSET 4.409401 0.000000 0.000000
												CHANNELS 3 Xrotation Yrotation Zrotation
												End Site
												{
													OFFSET 0.000000 4.409363 0.014373
												}
											}
										}
									}
								}
								JOINT LeftHandMiddle1
								{
									OFFSET 23.810104 0.000000 0.000000
									CHANNELS 3 Xrotation Yrotation Zrotation
									JOINT LeftHandMiddle2
									{
										OFFSET 7.176498 0.000000 0.000000
										CHANNELS 3 Xrotation Yrotation Zrotation
										JOINT LeftHandMiddle3
										{
											OFFSET 6.774902 0.000000 0.000000
											CHANNELS 3 Xrotation Yrotation Zrotation
											JOINT LeftHandMiddle4
											{
												OFFSET 5.403328 0.000000 0.000000
												CHANNELS 3 Xrotation Yrotation Zrotation
												End Site
												{
													OFFSET -0.027702 5.403244 0.017414
												}
											}
										}
									}
								}
								JOINT LeftHandRing1
								{
									OFFSET 22.908401 -0.839279 -6.020567
									CHANNELS 3 Xrotation Yrotation Zrotation
									JOINT LeftHandRing2
									{
										OFFSET 6.337502 0.000000 0.000000
										CHANNELS 3 Xrotation Yrotation Zrotation
										JOINT LeftHandRing3
										{
											OFFSET 5.779297 0.000000 0.000000
											CHANNELS 3 Xrotation Yrotation Zrotation
											JOINT LeftHandRing4
											{
												OFFSET 4.965698 0.000000 0.000000
												CHANNELS 3 Xrotation Yrotation Zrotation
												End Site
												{
													OFFSET 0.000000 4.965668 0.016186
												}
											}
										}
									}
								}
								JOINT LeftHandPinky1
								{
									OFFSET 20.037003 -1.530319 -10.950146
									CHANNELS 3 Xrotation Yrotation Zrotation
									JOINT LeftHandPinky2
									{
										OFFSET 5.254700 0.000000 0.000000
										CHANNELS 3 Xrotation Yrotation Zrotation
										JOINT LeftHandPinky3
										{
											OFFSET 4.810204 0.000000 0.000000
											CHANNELS 3 Xrotation Yrotation Zrotation
											JOINT LeftHandPinky4
											{
												OFFSET 3.647202 0.000000 0.000000
												CHANNELS 3 Xrotation Yrotation Zrotation
												End Site
												{
													OFFSET 0.000000 3.647186 0.011889
												}
											}
										}
									}
								}
							}
						}
					}
				}
				JOINT RightShoulder
				{
					OFFSET -15.141001 14.495407 -7.737500
					CHANNELS 3 Xrotation Yrotation Zrotation
					JOINT RightArm
					{
						OFFSET -9.308998 -2.777710 0.208500
						CHANNELS 3 Xrotation Yrotation Zrotation
						JOINT RightForeArm
						{
							OFFSET -29.972300 0.000000 0.000000
							CHANNELS 3 Xrotation Yrotation Zrotation
							JOINT RightHand
							{
								OFFSET -26.026505 0.000000 0.000000
								CHANNELS 3 Xrotation Yrotation Zrotation
								JOINT RightHandThumb1
								{
									OFFSET -12.240601 -7.148026 9.207092
									CHANNELS 3 Xrotation Yrotation Zrotation
									JOINT RightHandThumb2
									{
										OFFSET -4.138618 -2.389435 2.389433
										CHANNELS 3 Xrotation Yrotation Zrotation
										JOINT RightHandThumb3
										{
											OFFSET -2.726974 -1.574417 1.574421
											CHANNELS 3 Xrotation Yrotation Zrotation
											JOINT RightHandThumb4
											{
												OFFSET -3.941010 -2.275345 2.275343
												CHANNELS 3 Xrotation Yrotation Zrotation
												End Site
												{
													OFFSET 0.005814 5.087799 0.009927
												}
											}
										}
									}
								}
								JOINT RightHandIndex1
								{
									OFFSET -24.424698 -1.985657 5.953444
									CHANNELS 3 Xrotation Yrotation Zrotation
									JOINT RightHandIndex2
									{
										OFFSET -6.426697 0.000000 0.000000
										CHANNELS 3 Xrotation Yrotation Zrotation
										JOINT RightHandIndex3
										{
											OFFSET -5.337898 0.000000 0.000000
											CHANNELS 3 Xrotation Yrotation Zrotation
											JOINT RightHandIndex4
											{
												OFFSET -4.409401 0.000000 0.000000
												CHANNELS 3 Xrotation Yrotation Zrotation
												End Site
												{
													OFFSET 0.000000 4.409363 0.014408
												}
											}
										}
									}
								}
								JOINT RightHandMiddle1
								{
									OFFSET -23.810097 0.000000 0.000000
									CHANNELS 3 Xrotation Yrotation Zrotation
									JOINT RightHandMiddle2
									{
										OFFSET -7.176498 0.000000 0.000000
										CHANNELS 3 Xrotation Yrotation Zrotation
										JOINT RightHandMiddle3
										{
											OFFSET -6.774902 0.000000 0.000000
											CHANNELS 3 Xrotation Yrotation Zrotation
											JOINT RightHandMiddle4
											{
												OFFSET -5.403328 0.000000 0.000000
												CHANNELS 3 Xrotation Yrotation Zrotation
												End Site
												{
													OFFSET 0.027702 5.403244 0.017457
												}
											}
										}
									}
								}
								JOINT RightHandRing1
								{
									OFFSET -22.908302 -0.839325 -6.020576
									CHANNELS 3 Xrotation Yrotation Zrotation
									JOINT RightHandRing2
									{
										OFFSET -6.337502 0.000000 0.000000
										CHANNELS 3 Xrotation Yrotation Zrotation
										JOINT RightHandRing3
										{
											OFFSET -5.779297 0.000000 0.000000
											CHANNELS 3 Xrotation Yrotation Zrotation
											JOINT RightHandRing4
											{
												OFFSET -4.965698 0.000000 0.000000
												CHANNELS 3 Xrotation Yrotation Zrotation
												End Site
												{
													OFFSET 0.000000 4.965668 0.016226
												}
											}
										}
									}
								}
								JOINT RightHandPinky1
								{
									OFFSET -20.037003 -1.530334 -10.950259
									CHANNELS 3 Xrotation Yrotation Zrotation
									JOINT RightHandPinky2
									{
										OFFSET -5.254700 0.000000 0.000000
										CHANNELS 3 Xrotation Yrotation Zrotation
										JOINT RightHandPinky3
										{
											OFFSET -4.810204 0.000000 0.000000
											CHANNELS 3 Xrotation Yrotation Zrotation
											JOINT RightHandPinky4
											{
												OFFSET -3.647202 0.000000 0.000000
												CHANNELS 3 Xrotation Yrotation Zrotation
												End Site
												{
													OFFSET 0.000000 3.647186 0.011917
												}
											}
										}
									}
								}
							}
						}
					}
				}
			}
		}
	}
	JOINT LeftUpLeg
	{
		OFFSET 15.427100 -6.655098 0.678600
		CHANNELS 3 Xrotation Yrotation Zrotation
		JOINT LeftLeg
		{
			OFFSET 4.081073 -39.591068 13.024000
			CHANNELS 3 Xrotation Yrotation Zrotation
			JOINT LeftFoot
			{
				OFFSET -4.081074 -37.707932 -15.979700
				CHANNELS 3 Xrotation Yrotation Zrotation
				JOINT LeftToeBase
				{
					OFFSET 5.346399 -15.068900 20.645000
					CHANNELS 3 Xrotation Yrotation Zrotation
					JOINT LeftToe_End
					{
						OFFSET 2.754700 0.931300 11.300900
						CHANNELS 3 Xrotation Yrotation Zrotation
						End Site
						{
							OFFSET 0.000000 11.669021 0.000000
						}
					}
				}
			}
		}
	}
	JOINT RightUpLeg
	{
		OFFSET -15.569500 -6.655098 0.678600
		CHANNELS 3 Xrotation Yrotation Zrotation
		JOINT RightLeg
		{
			OFFSET -4.081825 -39.591045 13.023800
			CHANNELS 3 Xrotation Yrotation Zrotation
			JOINT RightFoot
			{
				OFFSET 4.081824 -37.707954 -15.979600
				CHANNELS 3 Xrotation Yrotation Zrotation
				JOINT RightToeBase
				{
					OFFSET -5.346400 -15.068900 20.645000
					CHANNELS 3 Xrotation Yrotation Zrotation
					JOINT RightToe_End
					{
						OFFSET -2.754700 0.931300 11.300900
						CHANNELS 3 Xrotation Yrotation Zrotation
						End Site
						{
							OFFSET 0.000000 11.669021 0.000000
						}
					}
				}
			}
		}
	}
}
MOTION
Frames: 4
Frame Time: 0.033333
0.219753 82.969223 -0.009961 -3.699067 -71.292292 -5.071669 13.320158 -1.583269 -0.245348 6.600903 -0.950132 -0.101233 6.602105 -0.947018 -0.072364 -0.621166 1.066720 -0.204162 2.854062 53.808869 -12.304946 -0.000000 -0.000000 -0.000000 0.659455 -7.940483 -7.565667 -17.699479 -75.759208 -49.651114 -0.000001 -47.912718 -0.000009 -21.822880 -10.854699 31.221802 12.918568 -14.352078 3.766705 -7.464500 38.549765 4.014229 2.520117 25.042656 25.644401 0.000003 -0.000000 0.000002 -0.003127 3.517069 -25.047011 5.392029 5.833085 -85.492344 1.138950 3.472496 -36.309098 -0.000000 0.000000 -0.000001 1.040750 5.695711 -26.426390 4.731312 5.743283 -78.948101 1.665170 4.091831 -44.273795 -0.000000 0.000001 -0.000001 0.502465 4.733748 -31.731795 5.174287 5.811922 -83.346538 1.678797 4.105702 -44.464094 0.000002 0.000001 -0.000001 -0.296973 3.719406 -35.394146 4.771152 5.750893 -79.345891 0.921023 3.155022 -32.540213 -0.000003 -0.000001 0.000000 0.591316 10.642579 9.522929 -19.745452 14.107956 48.873466 0.000960 86.735903 -0.001044 -37.038880 6.691034 -3.707070 11.465402 24.105618 10.468505 -4.963136 -36.723762 -15.281988 3.614960 -37.001853 -26.660554 -0.000001 -0.000001 0.000002 -4.243269 -1.792194 55.650155 2.182804 -3.946729 57.878313 1.337697 -3.268356 44.507678 0.000000 -0.000000 -0.000002 -0.402000 -4.272624 53.100951 2.281449 -4.006787 59.300488 1.784728 -3.667352 51.887868 -0.000000 -0.000000 0.000002 1.038805 -5.285607 50.092918 2.441017 -4.097110 61.558439 1.928805 -3.775727 54.107700 0.000000 0.000000 -0.000002 3.552057 -7.249820 52.615580 1.453445 -3.381923 46.503408 1.796578 -3.676634 52.073512 -0.000000 -0.000000 -0.000000 -29.194807 17.532744 35.301129 36.568201 -0.329494 -1.004613 -5.033225 3.334161 -19.651528 -0.465650 0.000010 0.000005 -0.000000 -0.000002 -0.000000 -29.464193 -8.776314 -22.245105 35.800880 9.318109 -5.426613 -10.984961 1.518349 23.103532 -0.418421 0.000005 -0.000003 0.000000 0.000000 0.000000 
0.190856 83.171303 0.040157 -3.130150 -71.304839 -4.543048 13.033722 -1.612117 -0.160771 6.471407 -0.957139 -0.076175 6.472162 -0.957045 -0.049944 -0.620819 1.079425 -0.191255 3.372542 53.906892 -12.607261 -0.000001 0.000000 -0.000001 0.670295 -7.730202 -7.198943 -18.645597 -76.002213 -50.732569 -0.000006 -47.951633 -0.000030 -22.145720 -10.825240 31.385413 12.918569 -14.352080 3.766706 -7.464507 38.549769 4.014235 2.520115 25.042658 25.644403 0.000002 0.000001 0.000001 -0.003129 3.517070 -25.047011 5.392026 5.833082 -85.492344 1.138948 3.472499 -36.309091 0.000001 0.000001 -0.000000 1.040748 5.695712 -26.426386 4.731310 5.743282 -78.948101 1.665173 4.091831 -44.273795 0.000002 -0.000001 0.000001 0.502462 4.733748 -31.731795 5.174287 5.811922 -83.346538 1.678796 4.105701 -44.464091 -0.000002 -0.000000 -0.000000 -0.296973 3.719407 -35.394143 4.771154 5.750895 -79.345898 0.921026 3.155021 -32.540210 0.000001 0.000001 -0.000000 0.608330 10.504311 9.263355 -19.571668 14.345793 48.873022 0.000650 86.800858 -0.000633 -37.284995 6.580271 -3.840667 11.465402 24.105616 10.468510 -4.963137 -36.723765 -15.281992 3.614961 -37.001853 -26.660551 -0.000001 -0.000003 0.000004 -4.243269 -1.792194 55.650162 2.182804 -3.946728 57.878313 1.337697 -3.268356 44.507674 -0.000000 -0.000000 -0.000001 -0.402001 -4.272624 53.100947 2.281447 -4.006787 59.300495 1.784727 -3.667351 51.887861 -0.000000 -0.000000 -0.000001 1.038805 -5.285608 50.092918 2.441018 -4.097109 61.558439 1.928804 -3.775726 54.107697 -0.000000 0.000000 -0.000003 3.552056 -7.249820 52.615580 1.453444 -3.381924 46.503411 1.796578 -3.676634 52.073512 -0.000000 -0.000000 0.000000 -29.026538 17.492582 35.132246 36.200570 -0.093850 -1.054540 -4.917725 3.323069 -19.679617 -0.462226 -0.000031 -0.000001 -0.000000 -0.000002 -0.000000 -29.333880 -8.761461 -22.149349 35.351632 9.305047 -5.398473 -10.792384 1.387851 23.150525 -0.433791 -0.000009 0.000003 0.000000 0.000000 0.000000 
0.159173 83.370186 0.087772 -2.566084 -71.317147 -4.019271 12.773587 -1.671831 -0.070084 6.355587 -0.978296 -0.048749 6.355926 -0.981223 -0.025186 -0.618206 1.090946 -0.177071 3.882073 53.986290 -12.842835 0.000002 -0.000001 0.000000 0.678638 -7.483290 -6.849913 -18.970963 -76.346051 -51.094292 -0.000018 -48.104305 -0.000031 -22.623383 -10.786498 31.668688 12.918569 -14.352078 3.766705 -7.464505 38.549772 4.014234 2.520119 25.042656 25.644399 -0.000000 0.000000 0.000002 -0.003129 3.517068 -25.047011 5.392030 5.833081 -85.492344 1.138950 3.472497 -36.309098 -0.000002 0.000000 -0.000000 1.040749 5.695711 -26.426390 4.731310 5.743281 -78.948094 1.665172 4.091834 -44.273788 0.000001 -0.000000 -0.000000 0.502465 4.733747 -31.731795 5.174286 5.811920 -83.346531 1.678799 4.105701 -44.464091 0.000000 0.000000 0.000000 -0.296974 3.719406 -35.394146 4.771153 5.750893 -79.345898 0.921023 3.155024 -32.540210 -0.000001 -0.000002 0.000002 0.623493 10.260785 9.031415 -19.462890 14.786292 48.878907 0.000184 86.816315 -0.000204 -37.531165 6.468281 -3.961290 11.465401 24.105614 10.468508 -4.963138 -36.723765 -15.281993 3.614959 -37.001853 -26.660556 -0.000002 0.000002 0.000003 -4.243269 -1.792194 55.650158 2.182805 -3.946729 57.878313 1.337697 -3.268356 44.507674 -0.000000 0.000000 0.000000 -0.402001 -4.272624 53.100947 2.281447 -4.006787 59.300495 1.784728 -3.667351 51.887868 -0.000000 0.000000 0.000000 1.038805 -5.285608 50.092922 2.441016 -4.097109 61.558439 1.928805 -3.775727 54.107700 -0.000000 -0.000000 0.000000 3.552056 -7.249821 52.615577 1.453445 -3.381923 46.503411 1.796578 -3.676634 52.073516 0.000001 0.000000 0.000000 -28.870018 17.464650 34.967410 35.837265 0.131938 -1.089548 -4.802219 3.312447 -19.709756 -0.450704 -0.000000 0.000001 -0.000000 -0.000000 -0.000000 -29.218364 -8.762669 -22.066907 34.904387 9.322985 -5.359996 -10.570376 1.259208 23.214141 -0.476984 0.000073 -0.000001 -0.000000 -0.000000 0.000000 
0.125731 83.561676 0.134135 -2.022703 -71.330589 -3.518615 12.544950 -1.732972 0.011604 6.255382 -1.002566 -0.024754 6.255306 -1.008023 -0.003429 -0.615932 1.102156 -0.162386 4.400433 54.060551 -13.068145 0.000000 -0.000001 -0.000000 0.685364 -7.238307 -6.499293 -18.853810 -76.790628 -50.913934 0.000001 -48.316659 0.000013 -23.222887 -10.749321 32.033737 12.918569 -14.352080 3.766704 -7.464511 38.549772 4.014232 2.520114 25.042656 25.644401 -0.000002 -0.000001 0.000002 -0.003126 3.517069 -25.047012 5.392031 5.833082 -85.492344 1.138950 3.472496 -36.309101 0.000002 0.000000 -0.000002 1.040751 5.695712 -26.426386 4.731310 5.743278 -78.948101 1.665174 4.091831 -44.273792 -0.000001 -0.000001 0.000001 0.502466 4.733748 -31.731795 5.174284 5.811923 -83.346538 1.678798 4.105700 -44.464098 0.000000 -0.000000 0.000001 -0.296971 3.719408 -35.394150 4.771152 5.750892 -79.345891 0.921023 3.155024 -32.540210 0.000001 -0.000001 0.000001 0.638405 10.043229 8.782211 -19.355067 15.224044 48.840320 0.002342 86.875451 -0.002303 -37.806398 6.391513 -4.123661 11.465402 24.105616 10.468499 -4.963141 -36.723762 -15.281992 3.614957 -37.001850 -26.660556 -0.000000 -0.000002 0.000004 -4.243269 -1.792192 55.650158 2.182804 -3.946729 57.878313 1.337697 -3.268355 44.507678 -0.000000 0.000000 0.000000 -0.402000 -4.272623 53.100951 2.281448 -4.006787 59.300488 1.784728 -3.667352 51.887861 -0.000000 -0.000000 -0.000000 1.038806 -5.285607 50.092918 2.441017 -4.097109 61.558439 1.928804 -3.775727 54.107703 -0.000000 -0.000000 -0.000001 3.552057 -7.249819 52.615580 1.453444 -3.381924 46.503411 1.796579 -3.676634 52.073512 0.000000 -0.000000 0.000000 -28.727803 17.448210 34.813706 35.488734 0.342242 -1.110363 -4.693003 3.302186 -19.740271 -0.436628 -0.000013 -0.000005 -0.000000 -0.000001 0.000000 -29.098973 -8.760086 -21.970615 34.473727 9.325222 -5.338525 -10.372170 1.139548 23.268674 -0.509155 0.000003 0.000008 0.000000 0.000001 0.000000 
